<?xml version="1.0" encoding="UTF-8"?><!DOCTYPE svg PUBLIC "-//W3C//DTD SVG 1.1//EN" "http://www.w3.org/Graphics/SVG/1.1/DTD/svg11.dtd"><svg xmlns="http://www.w3.org/2000/svg" xmlns:xlink="http://www.w3.org/1999/xlink"><defs/><symbol id="pttrn-icon-logo-swagger" viewBox="0 0 496 496"><g fill="none" fill-rule="evenodd"><path d="M247.6 495.1C109.2 494.5 5 384.9 1 258.1-3.8 107.7 113.4 5 237.7 1c150.1-4.8 252.2 112.3 257.2 235.1 6.2 149.6-114 260-247.3 259zM131.1 248c17-10.1 22-25.4 23.8-42.7 1.4-12.7.4-25.5 1.4-38.1 1.1-13.4 3-17.7 17.1-18 9.2-.2 9.2-.3 9.2-9.9 0-17.5 0-17.5-17.6-15.9-21.3 1.9-31 10.3-35.5 31.1-3.4 15.4-2.1 31.2-2.4 46.9-.1 6-1.2 11.9-3 17.6-2.1 6.8-6.6 11.4-13.6 13.5-3.9 1.2-9.5-1.8-11.4 2.5-1.6 3.7-.5 8.6-.6 13 0 3.5.2 6.9 0 10.4-.1 3.5 1.3 4.6 4.9 4.8 14.2.8 19.8 6.3 22.4 20.3 3.2 17.1.9 34.5 2.5 51.8 2.2 23.2 14.7 36.5 37.9 37.5 16.5.7 16.5.7 16.5-15.7 0-1-.2-1.9 0-2.8.9-5.7-1.3-7.4-7.1-7.4-13.4 0-18.4-.5-19.3-19.2-.6-12.7.1-25.4-1.4-38.1-2-16.9-7.2-31.8-23.8-41.6zm233.7.1c-14.4 8.4-20.5 21.1-23 36.3-2.2 14.9-1.8 29.9-2.4 44.9-.6 13.6-3.9 17.6-17.4 17.5-7.7-.1-9.6 2.1-9.3 9.6.7 17.6.2 17.7 18.2 16.2 20.6-1.7 30.6-10.2 35.2-30.4 1.8-8.1 2.3-16.4 2.3-24.7.1-11.2-.6-22.5 1.4-33.8 2.4-13.9 8.5-20 22.3-20.6 3.9-.2 5.2-1.5 5.1-5.3-.2-6-.4-12 .1-18 .5-5.6-1.6-7.1-7-7.1-10.1-.1-15.2-4-18.4-13.5-2-6.1-3.2-12.4-3.4-18.9-.5-13.3.1-26.7-1.2-40.1-2.3-23.7-14.9-36.3-38.8-37-15.5-.4-15.5-.4-15.5 14.7v1.4c0 9.5 0 9.5 9.3 9.8 13 .5 16.6 4.1 17.2 17.1.6 11.3.5 22.6 1.2 33.9 1.3 19.4 5.5 36.9 24.1 48zm-56.4 16.5c9-.1 16.8-7.8 16.8-16.6 0-9.1-8-16.8-17.4-16.7-8.9.1-16.8 8-16.8 16.7 0 9 8 16.7 17.4 16.6zm-43.9-16.7c0-9.5-7-16.5-16.4-16.5-9.5 0-16.9 7.4-16.9 16.9 0 9.3 7.1 16.4 16.5 16.4 10 0 16.8-6.8 16.8-16.8zM188 264.6c9.1 0 16.7-7.4 16.8-16.3.1-9.2-7.8-17-17.1-17-9.3.1-16.5 7.1-16.6 16.5-.1 9.6 7.1 16.8 16.9 16.8z" fill="currentColor" fill-rule="nonzero"/></g></symbol><symbol id="pttrn-icon-logo-mark" viewBox="0 0 30 30"><path fill="currentColor" d="M22.4 23c0 .5-.4 1-1 1H8.6c-.5 0-1-.4-1-1v-8.7c0-.5.4-1 1-1h11.2v-2.5c0-2.4-1.2-3.5-3.9-3.5-5.5 0-5.5 1.7-5.5 2.8v1c0 .3-.2.6-.7.4l-1.6-.6c-.3-.1-.3-.3-.3-.7V10c0-5.4 5.9-5.4 8.1-5.4 4.1 0 6.5 2.2 6.5 6.1V23zM15 0C6.7 0 0 6.7 0 15s6.7 15 15 15 15-6.7 15-15S23.3 0 15 0zm4.3 16h-8.6c-.3 0-.5.2-.5.5v4.4c0 .3.2.5.5.5h8.6c.3 0 .5-.2.5-.5v-4.4c0-.3-.2-.5-.5-.5z"/></symbol><symbol id="pttrn-icon-logo-github" viewBox="0 0 121 119"><g fill="currentColor" fill-rule="evenodd"><path d="M60.609.445C27.262.445.221 27.481.221 60.833c0 26.681 17.303 49.317 41.297 57.302 3.018.559 4.126-1.31 4.126-2.905 0-1.44-.056-6.197-.082-11.243-16.8 3.653-20.345-7.125-20.345-7.125-2.747-6.98-6.705-8.836-6.705-8.836-5.479-3.748.413-3.671.413-3.671 6.064.426 9.257 6.223 9.257 6.223 5.386 9.232 14.127 6.563 17.573 5.02.542-3.903 2.107-6.567 3.834-8.075-13.413-1.527-27.513-6.705-27.513-29.844 0-6.593 2.359-11.98 6.222-16.209-.627-1.521-2.694-7.663.585-15.981 0 0 5.071-1.623 16.611 6.19 4.817-1.338 9.983-2.009 15.115-2.032 5.132.023 10.302.694 15.128 2.032 11.526-7.813 16.59-6.19 16.59-6.19 3.287 8.318 1.219 14.46.592 15.981 3.872 4.229 6.215 9.616 6.215 16.209 0 23.194-14.127 28.301-27.574 29.796 2.166 1.874 4.096 5.549 4.096 11.183 0 8.08-.07 14.583-.07 16.572 0 1.607 1.087 3.49 4.148 2.897 23.981-7.994 41.262-30.622 41.262-57.294 0-33.352-27.037-60.388-60.387-60.388"/><path d="M23.093 87.149c-.133.3-.605.39-1.035.184-.438-.197-.684-.606-.542-.907.13-.309.603-.395 1.04-.188.439.197.689.61.537.911M25.539 89.877c-.288.267-.851.143-1.233-.279-.395-.421-.469-.984-.177-1.255.297-.267.843-.142 1.239.279.395.426.472.985.171 1.255M27.92 93.355c-.37.257-.975.016-1.349-.521-.37-.537-.37-1.181.008-1.439.375-.258.971-.026 1.35.507.369.546.369 1.19-.009 1.453M31.182 96.715c-.331.365-1.036.267-1.552-.231-.528-.487-.675-1.178-.343-1.543.335-.366 1.044-.263 1.564.231.524.486.684 1.182.331 1.543M35.682 98.666c-.146.473-.825.688-1.509.487-.683-.207-1.13-.761-.992-1.239.142-.476.824-.7 1.513-.485.682.206 1.13.756.988 1.237M40.624 99.028c.017.498-.563.911-1.281.92-.722.016-1.306-.387-1.314-.877 0-.503.567-.912 1.289-.924.718-.014 1.306.386 1.306.881M45.223 98.245c.086.486-.413.985-1.126 1.118-.701.128-1.35-.172-1.439-.654-.087-.498.421-.997 1.121-1.126.714-.124 1.353.168 1.444.662"/></g></symbol></svg>