<svg viewBox="0 0 496 496" xmlns="http://www.w3.org/2000/svg"><g fill="none" fill-rule="evenodd"><path d="M247.6 495.1C109.2 494.5 5 384.9 1 258.1-3.8 107.7 113.4 5 237.7 1c150.1-4.8 252.2 112.3 257.2 235.1 6.2 149.6-114 260-247.3 259zM131.1 248c17-10.1 22-25.4 23.8-42.7 1.4-12.7.4-25.5 1.4-38.1 1.1-13.4 3-17.7 17.1-18 9.2-.2 9.2-.3 9.2-9.9 0-17.5 0-17.5-17.6-15.9-21.3 1.9-31 10.3-35.5 31.1-3.4 15.4-2.1 31.2-2.4 46.9-.1 6-1.2 11.9-3 17.6-2.1 6.8-6.6 11.4-13.6 13.5-3.9 1.2-9.5-1.8-11.4 2.5-1.6 3.7-.5 8.6-.6 13 0 3.5.2 6.9 0 10.4-.1 3.5 1.3 4.6 4.9 4.8 14.2.8 19.8 6.3 22.4 20.3 3.2 17.1.9 34.5 2.5 51.8 2.2 23.2 14.7 36.5 37.9 37.5 16.5.7 16.5.7 16.5-15.7 0-1-.2-1.9 0-2.8.9-5.7-1.3-7.4-7.1-7.4-13.4 0-18.4-.5-19.3-19.2-.6-12.7.1-25.4-1.4-38.1-2-16.9-7.2-31.8-23.8-41.6zm233.7.1c-14.4 8.4-20.5 21.1-23 36.3-2.2 14.9-1.8 29.9-2.4 44.9-.6 13.6-3.9 17.6-17.4 17.5-7.7-.1-9.6 2.1-9.3 9.6.7 17.6.2 17.7 18.2 16.2 20.6-1.7 30.6-10.2 35.2-30.4 1.8-8.1 2.3-16.4 2.3-24.7.1-11.2-.6-22.5 1.4-33.8 2.4-13.9 8.5-20 22.3-20.6 3.9-.2 5.2-1.5 5.1-5.3-.2-6-.4-12 .1-18 .5-5.6-1.6-7.1-7-7.1-10.1-.1-15.2-4-18.4-13.5-2-6.1-3.2-12.4-3.4-18.9-.5-13.3.1-26.7-1.2-40.1-2.3-23.7-14.9-36.3-38.8-37-15.5-.4-15.5-.4-15.5 14.7v1.4c0 9.5 0 9.5 9.3 9.8 13 .5 16.6 4.1 17.2 17.1.6 11.3.5 22.6 1.2 33.9 1.3 19.4 5.5 36.9 24.1 48zm-56.4 16.5c9-.1 16.8-7.8 16.8-16.6 0-9.1-8-16.8-17.4-16.7-8.9.1-16.8 8-16.8 16.7 0 9 8 16.7 17.4 16.6zm-43.9-16.7c0-9.5-7-16.5-16.4-16.5-9.5 0-16.9 7.4-16.9 16.9 0 9.3 7.1 16.4 16.5 16.4 10 0 16.8-6.8 16.8-16.8zM188 264.6c9.1 0 16.7-7.4 16.8-16.3.1-9.2-7.8-17-17.1-17-9.3.1-16.5 7.1-16.6 16.5-.1 9.6 7.1 16.8 16.9 16.8z" fill="currentColor" fill-rule="nonzero"/></g></svg>