<?xml version="1.0" encoding="UTF-8"?>
<svg viewBox="0 0 496 496" version="1.1" xmlns="http://www.w3.org/2000/svg" xmlns:xlink="http://www.w3.org/1999/xlink">
    <!-- Generator: Sketch 51.2 (57519) - http://www.bohemiancoding.com/sketch -->
    <title>icon-swagger</title>
    <desc>Created with Sketch.</desc>
    <defs></defs>
    <g id="Page-1" stroke="none" stroke-width="1" fill="none" fill-rule="evenodd">
        <g id="icon-swagger">
            <path d="M247.6,495.1 C109.2,494.5 5,384.9 1,258.1 C-3.8,107.7 113.4,5 237.7,1 C387.8,-3.8 489.9,113.3 494.9,236.1 C501.1,385.7 380.9,496.1 247.6,495.1 Z M131.1,248 C148.1,237.9 153.1,222.6 154.9,205.3 C156.3,192.6 155.3,179.8 156.3,167.2 C157.4,153.8 159.3,149.5 173.4,149.2 C182.6,149 182.6,148.9 182.6,139.3 C182.6,121.8 182.6,121.8 165,123.4 C143.7,125.3 134,133.7 129.5,154.5 C126.1,169.9 127.4,185.7 127.1,201.4 C127,207.4 125.9,213.3 124.1,219 C122,225.8 117.5,230.4 110.5,232.5 C106.6,233.7 101,230.7 99.1,235 C97.5,238.7 98.6,243.6 98.5,248 C98.5,251.5 98.7,254.9 98.5,258.4 C98.4,261.9 99.8,263 103.4,263.2 C117.6,264 123.2,269.5 125.8,283.5 C129,300.6 126.7,318 128.3,335.3 C130.5,358.5 143,371.8 166.2,372.8 C182.7,373.5 182.7,373.5 182.7,357.1 C182.7,356.1 182.5,355.2 182.7,354.3 C183.6,348.6 181.4,346.9 175.6,346.9 C162.2,346.9 157.2,346.4 156.3,327.7 C155.7,315 156.4,302.3 154.9,289.6 C152.9,272.7 147.7,257.8 131.1,248 Z M364.8,248.1 C350.4,256.5 344.3,269.2 341.8,284.4 C339.6,299.3 340,314.3 339.4,329.3 C338.8,342.9 335.5,346.9 322,346.8 C314.3,346.7 312.4,348.9 312.7,356.4 C313.4,374 312.9,374.1 330.9,372.6 C351.5,370.9 361.5,362.4 366.1,342.2 C367.9,334.1 368.4,325.8 368.4,317.5 C368.5,306.3 367.8,295 369.8,283.7 C372.2,269.8 378.3,263.7 392.1,263.1 C396,262.9 397.3,261.6 397.2,257.8 C397,251.8 396.8,245.8 397.3,239.8 C397.8,234.2 395.7,232.7 390.3,232.7 C380.2,232.6 375.1,228.7 371.9,219.2 C369.9,213.1 368.7,206.8 368.5,200.3 C368,187 368.6,173.6 367.3,160.2 C365,136.5 352.4,123.9 328.5,123.2 C313,122.8 313,122.8 313,137.9 C313,138.4 313,138.8 313,139.3 C313,148.8 313,148.8 322.3,149.1 C335.3,149.6 338.9,153.2 339.5,166.2 C340.1,177.5 340,188.8 340.7,200.1 C342,219.5 346.2,237 364.8,248.1 Z M308.4,264.6 C317.4,264.5 325.2,256.8 325.2,248 C325.2,238.9 317.2,231.2 307.8,231.3 C298.9,231.4 291,239.3 291,248 C291,257 299,264.7 308.4,264.6 Z M264.5,247.9 C264.5,238.4 257.5,231.4 248.1,231.4 C238.6,231.4 231.2,238.8 231.2,248.3 C231.2,257.6 238.3,264.7 247.7,264.7 C257.7,264.7 264.5,257.9 264.5,247.9 Z M188,264.6 C197.1,264.6 204.7,257.2 204.8,248.3 C204.9,239.1 197,231.3 187.7,231.3 C178.4,231.4 171.2,238.4 171.1,247.8 C171,257.4 178.2,264.6 188,264.6 Z" id="Combined-Shape" fill="currentColor" fill-rule="nonzero"></path>
            <g id="Group" transform="translate(98.000000, 122.000000)"></g>
        </g>
    </g>
</svg>